<svg version="1" xmlns="http://www.w3.org/2000/svg" width="21.333" height="21.333" viewBox="0 0 16.000000 16.000000"><path d="M14.336.042a1.443 1.443 0 0 0-.703.339c-.16.144-.35.496-.382.703-.013.069-.022 2.136-.022 4.595 0 4.991-.016 4.652.22 4.998.184.266.46.47.74.54l.084.021v4.191l-.326.013c-.301.009-.332.015-.392.084a.267.267 0 0 0 .013.364l.075.079h.878c.483 0 .9-.01.929-.02.06-.024.14-.172.14-.263 0-.037-.04-.11-.09-.16-.088-.088-.104-.09-.392-.09h-.301V11.24l.128-.037c.32-.098.63-.38.794-.722l.097-.207.01-4.561c.009-5.038.018-4.728-.189-5.066-.153-.255-.489-.518-.721-.571a1.752 1.752 0 0 0-.59-.035zM1.076.343a1.337 1.337 0 0 0-.803.719l-.1.21-.01 4.561c-.006 4.11-.003 4.58.044 4.737.063.223.2.452.367.605.141.129.464.308.562.308.053 0 .056.078.056 1.976v1.976H.891c-.289 0-.304.003-.392.091-.05.05-.091.123-.091.16 0 .091.081.239.141.264.028.01.445.019.929.019h.878l.075-.079a.298.298 0 0 0 .06-.313c-.038-.098-.185-.142-.483-.142h-.283V13.46c0-1.86.003-1.976.057-1.976.103 0 .448-.185.59-.32.14-.132.342-.486.376-.668.013-.054.019-2.105.022-4.565 0-3.294-.01-4.514-.038-4.643-.094-.451-.486-.843-.966-.972a1.47 1.47 0 0 0-.69.028zm2.936 2.61c-.282.1-.495.286-.624.546l-.078.157v5.803l.078.154c.11.217.314.414.524.515.182.084.185.084.982.09l.847.007c.025.003-.185.235-.468.517l-.517.518-.668.01-.672.009-.06.078c-.059.076-.062.157-.062 2.268v2.19l.085.078.081.076 4.555-.007c4.448-.01 4.555-.01 4.615-.069.056-.06.06-.135.065-2.258.01-2.13.007-2.202-.053-2.278l-.06-.078-.67-.01-.669-.009-.518-.518c-.373-.373-.495-.514-.451-.517.034 0 .38-.003.768-.003.43-.003.766-.016.866-.041.301-.07.536-.26.693-.555l.088-.167V3.656l-.106-.195a1.111 1.111 0 0 0-.528-.489l-.15-.069L8.04 2.9c-3.66-.003-3.874 0-4.028.053z"/></svg>